<?xml version="1.0" encoding="utf-8"?>
<!-- Generator: Adobe Illustrator 16.0.0, SVG Export Plug-In . SVG Version: 6.00 Build 0)  -->
<!DOCTYPE svg PUBLIC "-//W3C//DTD SVG 1.1//EN" "http://www.w3.org/Graphics/SVG/1.1/DTD/svg11.dtd">
<svg fill="#989898" version="1.1" id="Layer_1" xmlns="http://www.w3.org/2000/svg" xmlns:xlink="http://www.w3.org/1999/xlink" x="0px" y="0px"
	 width="362.555px" height="77.11px" viewBox="0 0 362.555 77.11" enable-background="new 0 0 362.555 77.11" xml:space="preserve">
<path d="M33.99,0v2.2c-2.348,0.074-4.125,0.349-5.335,0.825c-1.21,0.478-1.999,1.358-2.365,2.64c-0.368,1.284-0.55,3.283-0.55,5.995
	v54.56c0,2.64,0.201,4.62,0.605,5.94c0.402,1.32,1.191,2.199,2.365,2.64c1.172,0.44,2.932,0.733,5.28,0.88v2.2
	c-1.98-0.146-4.474-0.237-7.48-0.274c-3.008-0.037-6.05-0.056-9.13-0.056c-3.594,0-6.913,0.019-9.955,0.056
	C4.381,77.643,1.906,77.734,0,77.88v-2.2c2.346-0.146,4.106-0.439,5.28-0.88c1.172-0.44,1.961-1.319,2.365-2.64
	c0.402-1.32,0.605-3.301,0.605-5.94V11.66c0-2.712-0.203-4.711-0.605-5.995c-0.404-1.282-1.21-2.162-2.42-2.64
	C4.015,2.549,2.272,2.274,0,2.2V0c1.906,0.074,4.381,0.147,7.425,0.22c3.042,0.074,6.361,0.11,9.955,0.11
	c3.08,0,6.122-0.036,9.13-0.11C29.516,0.147,32.01,0.074,33.99,0z"/>
<path d="M81.179,19.47c3.08,0,5.591,0.385,7.535,1.155c1.942,0.77,3.465,1.815,4.565,3.135c1.172,1.394,2.035,3.19,2.585,5.39
	c0.55,2.2,0.825,5.17,0.825,8.91v29.59c0,3.08,0.531,5.17,1.595,6.27c1.062,1.1,2.877,1.65,5.445,1.65v2.31
	c-1.394-0.072-3.484-0.165-6.27-0.274c-2.788-0.11-5.538-0.166-8.25-0.166c-2.788,0-5.519,0.056-8.195,0.166
	c-2.678,0.109-4.713,0.202-6.105,0.274v-2.31c2.2,0,3.74-0.551,4.62-1.65c0.88-1.1,1.32-3.189,1.32-6.27V33.44
	c0-1.832-0.184-3.427-0.55-4.785c-0.368-1.356-1.028-2.42-1.98-3.19c-0.954-0.77-2.384-1.155-4.29-1.155
	c-1.98,0-3.795,0.55-5.445,1.65c-1.65,1.1-2.97,2.623-3.96,4.565c-0.99,1.944-1.485,4.125-1.485,6.545V67.65
	c0,3.08,0.457,5.17,1.375,6.27c0.916,1.1,2.437,1.65,4.565,1.65v2.31c-1.32-0.072-3.245-0.165-5.775-0.274
	c-2.53-0.11-5.153-0.166-7.865-0.166c-2.788,0-5.647,0.056-8.58,0.166c-2.934,0.109-5.134,0.202-6.6,0.274v-2.31
	c2.566,0,4.381-0.551,5.445-1.65c1.062-1.1,1.595-3.189,1.595-6.27V33c0-3.3-0.495-5.737-1.485-7.315
	c-0.99-1.576-2.843-2.365-5.555-2.365v-2.31c2.346,0.22,4.62,0.33,6.82,0.33c3.08,0,5.957-0.127,8.635-0.385
	c2.676-0.256,5.151-0.641,7.425-1.155v9.9c1.832-3.74,4.326-6.38,7.48-7.92C73.771,20.24,77.291,19.47,81.179,19.47z"/>
<path d="M130.129,1.43v18.04h12.98v2.2h-12.98v44.44c0,2.199,0.402,3.758,1.21,4.674c0.806,0.918,2.016,1.375,3.63,1.375
	c1.32,0,2.64-0.494,3.96-1.484s2.492-2.695,3.52-5.115l1.87,0.99c-1.174,3.3-2.953,6.014-5.335,8.141
	c-2.384,2.125-5.629,3.189-9.735,3.189c-2.42,0-4.548-0.313-6.38-0.936c-1.834-0.621-3.374-1.557-4.62-2.805
	c-1.614-1.611-2.678-3.611-3.19-5.994c-0.514-2.383-0.77-5.482-0.77-9.296V21.67h-9.24v-2.2h9.24V4.95
	c3.08,0,5.921-0.275,8.525-0.825C125.416,3.575,127.855,2.678,130.129,1.43z"/>
<path d="M161.697,77.88c-3.3,0-6.05-0.625-8.25-1.871c-2.2-1.246-3.814-2.914-4.84-5.004c-1.028-2.09-1.54-4.381-1.54-6.875
	c0-3.152,0.715-5.721,2.145-7.701c1.43-1.979,3.281-3.591,5.555-4.839c2.272-1.246,4.675-2.272,7.205-3.08
	c2.53-0.806,4.95-1.595,7.26-2.365s4.18-1.686,5.61-2.75c1.43-1.063,2.145-2.438,2.145-4.125v-8.58c0-1.906-0.313-3.611-0.935-5.115
	c-0.624-1.502-1.578-2.657-2.86-3.465c-1.284-0.806-2.953-1.21-5.005-1.21c-1.468,0-2.934,0.203-4.4,0.605
	c-1.468,0.404-2.678,1.083-3.63,2.035c2.052,0.734,3.647,1.853,4.785,3.355c1.136,1.504,1.705,3.209,1.705,5.115
	c0,2.494-0.863,4.474-2.585,5.94c-1.724,1.468-3.759,2.2-6.105,2.2c-2.64,0-4.639-0.825-5.995-2.475
	c-1.358-1.65-2.035-3.647-2.035-5.995c0-2.126,0.531-3.886,1.595-5.28c1.062-1.392,2.547-2.712,4.455-3.96
	c2.052-1.172,4.527-2.09,7.425-2.75c2.896-0.66,6.031-0.99,9.405-0.99c3.372,0,6.416,0.349,9.13,1.045
	c2.712,0.698,4.986,1.963,6.82,3.795c1.686,1.688,2.786,3.759,3.3,6.215c0.512,2.458,0.77,5.555,0.77,9.295v29.92
	c0,1.834,0.182,3.1,0.55,3.795c0.366,0.697,0.99,1.045,1.87,1.045c0.66,0,1.301-0.182,1.924-0.551
	c0.623-0.365,1.301-0.805,2.035-1.318l1.1,1.869c-1.539,1.32-3.318,2.328-5.334,3.025c-2.018,0.695-4.272,1.045-6.765,1.045
	c-2.714,0-4.878-0.385-6.49-1.154c-1.614-0.771-2.769-1.816-3.465-3.137c-0.698-1.318-1.045-2.859-1.045-4.619
	c-1.76,2.787-3.888,4.969-6.38,6.545C168.333,77.093,165.29,77.88,161.697,77.88z M169.507,70.839c1.466,0,2.805-0.346,4.015-1.045
	c1.21-0.695,2.365-1.85,3.465-3.465V43.78c-0.66,1.1-1.578,2.09-2.75,2.97c-1.174,0.88-2.42,1.779-3.74,2.695
	c-1.32,0.918-2.585,1.925-3.795,3.025s-2.183,2.458-2.915,4.07c-0.734,1.613-1.1,3.557-1.1,5.83c0,2.859,0.622,4.988,1.87,6.379
	C165.804,70.144,167.454,70.839,169.507,70.839z"/>
<path d="M241.336,19.47c2.346,0,4.252,0.495,5.721,1.485c1.465,0.99,2.547,2.255,3.244,3.795c0.695,1.54,1.045,3.154,1.045,4.84
	c0,2.714-0.789,4.933-2.365,6.655c-1.578,1.724-3.648,2.585-6.215,2.585c-2.568,0-4.564-0.641-5.994-1.925
	c-1.43-1.282-2.146-2.987-2.146-5.115c0-2.052,0.459-3.757,1.375-5.115c0.918-1.356,2.072-2.511,3.467-3.465
	c-1.029-0.292-2.055-0.256-3.08,0.11c-1.395,0.22-2.715,0.789-3.961,1.705c-1.248,0.918-2.311,2.054-3.189,3.41
	c-0.881,1.357-1.578,2.824-2.09,4.4c-0.514,1.578-0.771,3.099-0.771,4.565v29.15c0,3.521,0.861,5.903,2.586,7.149
	c1.723,1.248,4.307,1.871,7.756,1.871v2.31c-1.689-0.072-4.145-0.165-7.371-0.274c-3.229-0.11-6.6-0.166-10.119-0.166
	c-2.934,0-5.904,0.056-8.91,0.166c-3.008,0.109-5.281,0.202-6.82,0.274v-2.31c2.566,0,4.381-0.551,5.445-1.65
	c1.063-1.1,1.594-3.189,1.594-6.27V33c0-3.3-0.494-5.737-1.484-7.315c-0.99-1.576-2.842-2.365-5.555-2.365v-2.31
	c2.346,0.22,4.619,0.33,6.82,0.33c3.08,0,5.957-0.127,8.635-0.385c2.676-0.256,5.15-0.641,7.424-1.155v10.23
	c0.881-1.98,2.053-3.776,3.521-5.39c1.465-1.612,3.152-2.877,5.059-3.795C236.861,19.929,238.988,19.47,241.336,19.47z"/>
<path d="M281.705,17.93c6.453,0,11.514,1.908,15.182,5.72c3.666,3.814,5.5,10.048,5.5,18.7h-36.191l-0.219-2.09h22.549
	c0.072-3.592-0.146-6.911-0.66-9.955c-0.514-3.042-1.318-5.481-2.42-7.315c-1.1-1.832-2.566-2.75-4.398-2.75
	c-2.568,0-4.75,1.614-6.545,4.84c-1.799,3.228-2.879,8.58-3.246,16.06l0.33,0.66c-0.074,0.88-0.129,1.798-0.164,2.75
	c-0.039,0.954-0.057,1.944-0.057,2.97c0,5.06,0.715,9.167,2.146,12.32c1.43,3.153,3.244,5.444,5.443,6.875
	c2.201,1.431,4.438,2.146,6.711,2.146c1.539,0,3.135-0.238,4.785-0.715s3.316-1.357,5.004-2.641c1.688-1.282,3.264-3.098,4.73-5.445
	l1.98,0.66c-0.881,2.788-2.273,5.5-4.18,8.141c-1.908,2.64-4.328,4.803-7.26,6.489c-2.934,1.687-6.455,2.53-10.561,2.53
	c-4.988,0-9.389-1.064-13.199-3.189c-3.814-2.127-6.803-5.353-8.965-9.681c-2.164-4.326-3.246-9.826-3.246-16.5
	c0-6.82,1.154-12.502,3.465-17.05c2.311-4.546,5.5-7.938,9.57-10.175C271.861,19.049,276.498,17.93,281.705,17.93z"/>
<path d="M323.945,77.88c-3.301,0-6.051-0.625-8.25-1.871s-3.814-2.914-4.84-5.004c-1.027-2.09-1.539-4.381-1.539-6.875
	c0-3.152,0.715-5.721,2.145-7.701c1.43-1.979,3.281-3.591,5.555-4.839c2.271-1.246,4.676-2.272,7.205-3.08
	c2.529-0.806,4.949-1.595,7.26-2.365s4.18-1.686,5.609-2.75c1.43-1.063,2.146-2.438,2.146-4.125v-8.58
	c0-1.906-0.314-3.611-0.936-5.115c-0.625-1.502-1.578-2.657-2.859-3.465c-1.285-0.806-2.953-1.21-5.006-1.21
	c-1.469,0-2.934,0.203-4.4,0.605c-1.467,0.404-2.678,1.083-3.629,2.035c2.051,0.734,3.646,1.853,4.785,3.355
	c1.135,1.504,1.703,3.209,1.703,5.115c0,2.494-0.861,4.474-2.584,5.94c-1.725,1.468-3.76,2.2-6.105,2.2
	c-2.639,0-4.639-0.825-5.994-2.475c-1.357-1.65-2.035-3.647-2.035-5.995c0-2.126,0.531-3.886,1.594-5.28
	c1.063-1.392,2.549-2.712,4.455-3.96c2.053-1.172,4.527-2.09,7.426-2.75c2.896-0.66,6.031-0.99,9.404-0.99s6.416,0.349,9.131,1.045
	c2.713,0.698,4.986,1.963,6.82,3.795c1.686,1.688,2.785,3.759,3.299,6.215c0.514,2.458,0.771,5.555,0.771,9.295v29.92
	c0,1.834,0.182,3.1,0.549,3.795c0.367,0.697,0.99,1.045,1.871,1.045c0.66,0,1.301-0.182,1.924-0.551
	c0.623-0.365,1.301-0.805,2.035-1.318l1.1,1.869c-1.539,1.32-3.318,2.328-5.334,3.025c-2.018,0.695-4.273,1.045-6.766,1.045
	c-2.713,0-4.877-0.385-6.49-1.154c-1.613-0.771-2.768-1.816-3.465-3.137c-0.697-1.318-1.045-2.859-1.045-4.619
	c-1.76,2.787-3.887,4.969-6.379,6.545C330.582,77.093,327.537,77.88,323.945,77.88z M331.756,70.839
	c1.465,0,2.805-0.346,4.014-1.045c1.211-0.695,2.365-1.85,3.467-3.465V43.78c-0.66,1.1-1.578,2.09-2.75,2.97
	c-1.174,0.88-2.42,1.779-3.74,2.695c-1.32,0.918-2.586,1.925-3.795,3.025c-1.211,1.1-2.184,2.458-2.916,4.07
	c-0.734,1.613-1.1,3.557-1.1,5.83c0,2.859,0.623,4.988,1.869,6.379C328.051,70.144,329.701,70.839,331.756,70.839z"/>
</svg>
