<svg width="352.4px" height="122px" xmlns="http://www.w3.org/2000/svg" viewBox="73.80000000000001 14 352.4 122" style="background: rgba(0, 0, 0, 0);" preserveAspectRatio="xMidYMid"><defs><filter id="editing-extrusion" x="-100%" y="-100%" width="300%" height="300%"><feFlood result="color1" flood-color="#444"></feFlood><feConvolveMatrix order="8,8" divisor="1" kernelMatrix="1 0 0 0 0 0 0 0 0 1 0 0 0 0 0 0 0 0 1 0 0 0 0 0 0 0 0 1 0 0 0 0 0 0 0 0 1 0 0 0 0 0 0 0 0 1 0 0 0 0 0 0 0 0 1 0 0 0 0 0 0 0 0 1" in="SourceAlpha" result="extrude"></feConvolveMatrix><feComposite in="color1" in2="extrude" result="comp-extrude" operator="in"></feComposite><feOffset dx="4" dy="4" in="comp-extrude" result="offset-extrude"></feOffset><feMerge><feMergeNode in="offset-extrude"></feMergeNode><feMergeNode in="SourceGraphic"></feMergeNode></feMerge></filter></defs><g filter="url(#editing-extrusion)"><g transform="translate(126.98998498916626, 99)"><path d="M2.69-39.68L2.69-39.68L2.69-39.68Q3.58-41.47 5.54-42.46L5.54-42.46L5.54-42.46Q7.49-43.46 10.18-43.46L10.18-43.46L10.18-43.46Q14.40-43.46 16.93-40.42L16.93-40.42L16.93-40.42Q19.46-37.38 19.46-30.72L19.46-30.72L19.46-7.87L34.11-42.18L41.66-42.18L43.39-9.79L43.20-7.94L58.43-42.18L67.20-42.18L46.72 0L33.09 0L31.81-19.46L23.36 0L7.94 0L6.02-30.72L6.02-30.72Q5.82-34.18 4.90-36.45L4.90-36.45L4.90-36.45Q3.97-38.72 2.69-39.68ZM89.28-10.82L89.28-10.82L89.28-10.82Q90.88-9.73 90.88-7.33L90.88-7.33L90.88-7.33Q90.88-4.93 89.66-3.39L89.66-3.39L89.66-3.39Q88.45-1.86 86.46-0.83L86.46-0.83L86.46-0.83Q82.37 1.28 77.95 1.28L77.95 1.28L77.95 1.28Q73.54 1.28 70.94 0.32L70.94 0.32L70.94 0.32Q68.35-0.64 66.62-2.43L66.62-2.43L66.62-2.43Q63.23-5.82 63.23-12.03L63.23-12.03L63.23-12.03Q63.23-21.70 68.48-27.58L68.48-27.58L68.48-27.58Q74.11-33.92 83.90-33.92L83.90-33.92L83.90-33.92Q89.98-33.92 92.99-31.36L92.99-31.36L92.99-31.36Q95.23-29.44 95.23-26.30L95.23-26.30L95.23-26.30Q95.23-15.04 75.78-15.04L75.78-15.04L75.78-15.04Q75.52-13.38 75.52-11.97L75.52-11.97L75.52-11.97Q75.52-9.02 76.83-7.90L76.83-7.90L76.83-7.90Q78.14-6.78 80.58-6.78L80.58-6.78L80.58-6.78Q83.01-6.78 85.60-7.90L85.60-7.90L85.60-7.90Q88.19-9.02 89.28-10.82ZM76.22-17.79L76.22-17.79L76.22-17.79Q80.77-17.79 83.39-20.61L83.39-20.61L83.39-20.61Q86.02-23.30 86.02-27.58L86.02-27.58L86.02-27.58Q86.02-29.06 85.47-29.86L85.47-29.86L85.47-29.86Q84.93-30.66 83.84-30.66L83.84-30.66L83.84-30.66Q82.75-30.66 81.82-30.24L81.82-30.24L81.82-30.24Q80.90-29.82 79.94-28.42L79.94-28.42L79.94-28.42Q77.57-25.22 76.22-17.79ZM96.58-3.07L96.58-3.07L104.51-44.80L117.50-46.08L115.52-36.29L115.52-36.29Q114.82-33.28 113.92-31.17L113.92-31.17L113.92-31.17Q115.33-32.96 118.40-33.66L118.40-33.66L118.40-33.66Q119.30-33.92 120.38-33.92L120.38-33.92L120.38-33.92Q126.34-33.92 129.60-30.30L129.60-30.30L129.60-30.30Q132.86-26.69 132.86-19.71L132.86-19.71L132.86-19.71Q132.86-10.62 127.68-4.93L127.68-4.93L127.68-4.93Q122.11 1.28 112 1.28L112 1.28L112 1.28Q105.02 1.28 99.78-1.02L99.78-1.02L99.78-1.02Q97.92-1.86 96.58-3.07ZM112.83-22.40L109.44-3.65L109.44-3.65Q110.78-2.50 112.45-2.50L112.45-2.50L112.45-2.50Q114.11-2.50 115.07-3.14L115.07-3.14L115.07-3.14Q116.03-3.78 116.74-5.06L116.74-5.06L116.74-5.06Q118.66-8.51 120.19-19.07L120.19-19.07L120.19-19.07Q120.64-22.08 120.64-25.09L120.64-25.09L120.64-25.09Q120.64-28.10 119.97-29.06L119.97-29.06L119.97-29.06Q119.30-30.02 118.02-30.02L118.02-30.02L118.02-30.02Q114.11-30.02 112.83-22.40L112.83-22.40ZM155.84-22.46L155.84-22.46L155.84-22.46Q156.74-24.83 156.74-26.88L156.74-26.88L156.74-26.88Q156.74-30.66 153.66-30.66L153.66-30.66L153.66-30.66Q152.06-30.66 150.75-29.22L150.75-29.22L150.75-29.22Q149.44-27.78 149.44-25.98L149.44-25.98L149.44-25.98Q149.44-24.70 150.46-23.68L150.46-23.68L150.46-23.68Q151.94-22.27 155.71-19.97L155.71-19.97L155.71-19.97Q159.49-17.66 160.93-15.78L160.93-15.78L160.93-15.78Q162.37-13.89 162.37-11.30L162.37-11.30L162.37-11.30Q162.37-8.70 161.12-6.34L161.12-6.34L161.12-6.34Q159.87-3.97 157.63-2.30L157.63-2.30L157.63-2.30Q152.83 1.28 145.15 1.28L145.15 1.28L145.15 1.28Q140.99 1.28 137.79-0.90L137.79-0.90L137.79-0.90Q134.59-3.01 134.59-5.50L134.59-5.50L134.59-5.50Q134.59-8 136.42-9.47L136.42-9.47L136.42-9.47Q138.24-10.94 140.93-10.94L140.93-10.94L140.93-10.94Q143.62-10.94 145.28-9.92L145.28-9.92L145.28-9.92Q144.45-7.81 144.45-6.40L144.45-6.40L144.45-6.40Q144.45-2.18 148.03-2.18L148.03-2.18L148.03-2.18Q149.57-2.18 150.59-3.14L150.59-3.14L150.59-3.14Q151.62-4.10 151.62-5.76L151.62-5.76L151.62-5.76Q151.62-9.02 146.11-12.48L146.11-12.48L146.11-12.48Q141.63-15.42 140.61-16.58L140.61-16.58L140.61-16.58Q138.88-18.62 138.88-21.18L138.88-21.18L138.88-21.18Q138.88-23.74 140.10-26.18L140.10-26.18L140.10-26.18Q141.31-28.61 143.55-30.34L143.55-30.34L143.55-30.34Q148.22-33.92 156.35-33.92L156.35-33.92L156.35-33.92Q160.51-33.92 162.98-32.26L162.98-32.26L162.98-32.26Q165.44-30.59 165.44-27.78L165.44-27.78L165.44-27.78Q165.44-24.96 163.74-23.36L163.74-23.36L163.74-23.36Q162.05-21.76 158.98-21.76L158.98-21.76L158.98-21.76Q156.86-21.76 155.84-22.46ZM183.17-3.52L183.17-3.52L183.17-3.52Q181.18 1.28 174.85 1.28L174.85 1.28L174.85 1.28Q171.58 1.28 169.54-0.96L169.54-0.96L169.54-0.96Q167.81-2.94 167.81-4.93L167.81-4.93L167.81-4.93Q167.81-10.11 170.18-20.22L170.18-20.22L172.54-32.64L185.54-33.92L181.63-13.70L181.63-13.70Q180.54-8.96 180.54-7.30L180.54-7.30L180.54-7.30Q180.54-3.65 183.17-3.52ZM173.70-41.54L173.70-41.54L173.70-41.54Q173.70-44.03 175.78-45.38L175.78-45.38L175.78-45.38Q177.86-46.72 180.86-46.72L180.86-46.72L180.86-46.72Q183.87-46.72 185.70-45.38L185.70-45.38L185.70-45.38Q187.52-44.03 187.52-41.54L187.52-41.54L187.52-41.54Q187.52-39.04 185.50-37.76L185.50-37.76L185.50-37.76Q183.49-36.48 180.48-36.48L180.48-36.48L180.48-36.48Q177.47-36.48 175.58-37.76L175.58-37.76L175.58-37.76Q173.70-39.04 173.70-41.54ZM189.63-6.40L189.63-6.40L189.63-6.40Q189.63-8.13 190.53-12.48L190.53-12.48L193.92-29.76L190.14-29.76L190.40-31.68L190.40-31.68Q198.08-33.98 205.50-39.62L205.50-39.62L208.58-39.62L207.04-32.64L212.03-32.64L211.46-29.76L206.53-29.76L203.26-12.48L203.26-12.48Q202.43-8.51 202.43-7.17L202.43-7.17L202.43-7.17Q202.43-4.10 205.12-3.46L205.12-3.46L205.12-3.46Q204.48-1.28 202.18 0L202.18 0L202.18 0Q199.87 1.28 196.61 1.28L196.61 1.28L196.61 1.28Q193.34 1.28 191.49-0.77L191.49-0.77L191.49-0.77Q189.63-2.82 189.63-6.40ZM237.38-10.82L237.38-10.82L237.38-10.82Q238.98-9.73 238.98-7.33L238.98-7.33L238.98-7.33Q238.98-4.93 237.76-3.39L237.76-3.39L237.76-3.39Q236.54-1.86 234.56-0.83L234.56-0.83L234.56-0.83Q230.46 1.28 226.05 1.28L226.05 1.28L226.05 1.28Q221.63 1.28 219.04 0.32L219.04 0.32L219.04 0.32Q216.45-0.64 214.72-2.43L214.72-2.43L214.72-2.43Q211.33-5.82 211.33-12.03L211.33-12.03L211.33-12.03Q211.33-21.70 216.58-27.58L216.58-27.58L216.58-27.58Q222.21-33.92 232.00-33.92L232.00-33.92L232.00-33.92Q238.08-33.92 241.09-31.36L241.09-31.36L241.09-31.36Q243.33-29.44 243.33-26.30L243.33-26.30L243.33-26.30Q243.33-15.04 223.87-15.04L223.87-15.04L223.87-15.04Q223.62-13.38 223.62-11.97L223.62-11.97L223.62-11.97Q223.62-9.02 224.93-7.90L224.93-7.90L224.93-7.90Q226.24-6.78 228.67-6.78L228.67-6.78L228.67-6.78Q231.10-6.78 233.70-7.90L233.70-7.90L233.70-7.90Q236.29-9.02 237.38-10.82ZM224.32-17.79L224.32-17.79L224.32-17.79Q228.86-17.79 231.49-20.61L231.49-20.61L231.49-20.61Q234.11-23.30 234.11-27.58L234.11-27.58L234.11-27.58Q234.11-29.06 233.57-29.86L233.57-29.86L233.57-29.86Q233.02-30.66 231.94-30.66L231.94-30.66L231.94-30.66Q230.85-30.66 229.92-30.24L229.92-30.24L229.92-30.24Q228.99-29.82 228.03-28.42L228.03-28.42L228.03-28.42Q225.66-25.22 224.32-17.79Z" fill="#ccc"></path></g></g><style>text {
  font-size: 64px;
  font-family: Arial Black;
  dominant-baseline: central;
  text-anchor: middle;
}</style></svg>